<mxfile host="app.diagrams.net" agent="Mozilla/5.0 (Windows NT 10.0; Win64; x64) AppleWebKit/537.36 (KHTML, like Gecko) Chrome/137.0.0.0 Safari/537.36" version="26.2.13">
  <diagram name="Page-1" id="HCT3VJi0-7G5EI2fukO9">
    <mxGraphModel grid="1" page="1" gridSize="10" guides="1" tooltips="1" connect="1" arrows="1" fold="1" pageScale="1" pageWidth="850" pageHeight="1100" math="0" shadow="0">
      <root>
        <mxCell id="0" />
        <mxCell id="1" parent="0" />
        <mxCell id="UwhsoIJC6lhriWPX3yOJ-1" value="&lt;b&gt;DC-Mainframe-SD01&lt;/b&gt;&lt;div&gt;Domain Controller&lt;/div&gt;&lt;div&gt;DHCP, DNS, AD&lt;/div&gt;&lt;div&gt;IP 192.168.220.10&lt;/div&gt;" style="image;html=1;image=img/lib/clip_art/computers/Server_Tower_128x128.png" vertex="1" parent="1">
          <mxGeometry x="140" y="270" width="80" height="80" as="geometry" />
        </mxCell>
        <mxCell id="UwhsoIJC6lhriWPX3yOJ-2" value="&lt;b&gt;Config-Mgr-SD01&lt;/b&gt;&lt;div&gt;SCCM&lt;/div&gt;&lt;div&gt;SQL Server, WSUS, IIS&lt;/div&gt;&lt;div&gt;IP 192.168.220.12&lt;/div&gt;" style="image;html=1;image=img/lib/clip_art/computers/Server_Tower_128x128.png" vertex="1" parent="1">
          <mxGeometry x="650" y="270" width="80" height="80" as="geometry" />
        </mxCell>
        <mxCell id="UwhsoIJC6lhriWPX3yOJ-5" value="&lt;b&gt;NAT&lt;/b&gt;" style="image;aspect=fixed;perimeter=ellipsePerimeter;html=1;align=center;shadow=0;dashed=0;spacingTop=3;image=img/lib/active_directory/internet_cloud.svg;labelPosition=center;verticalLabelPosition=middle;verticalAlign=middle;" vertex="1" parent="1">
          <mxGeometry x="371.94" y="200" width="111.11" height="70" as="geometry" />
        </mxCell>
        <mxCell id="UwhsoIJC6lhriWPX3yOJ-6" value="&lt;b&gt;Host-Only&lt;/b&gt;" style="outlineConnect=0;dashed=0;verticalLabelPosition=middle;verticalAlign=middle;align=center;html=1;shape=mxgraph.aws3.internet_2;fillColor=#D2D3D3;gradientColor=none;labelPosition=center;" vertex="1" parent="1">
          <mxGeometry x="375" y="358" width="110" height="60" as="geometry" />
        </mxCell>
        <mxCell id="UwhsoIJC6lhriWPX3yOJ-7" value="&lt;b&gt;PC1&lt;/b&gt;&lt;div&gt;Windows 11&lt;/div&gt;&lt;div&gt;IP 192.168.220.15&lt;/div&gt;" style="sketch=0;pointerEvents=1;shadow=0;dashed=0;html=1;strokeColor=none;fillColor=#505050;labelPosition=center;verticalLabelPosition=bottom;verticalAlign=top;outlineConnect=0;align=center;shape=mxgraph.office.devices.workstation_pc;" vertex="1" parent="1">
          <mxGeometry x="200" y="525.5" width="53" height="59" as="geometry" />
        </mxCell>
        <mxCell id="UwhsoIJC6lhriWPX3yOJ-13" value="&lt;b&gt;Host Laptop&lt;/b&gt;&lt;div&gt;Dell Latitude 5490&lt;/div&gt;&lt;div&gt;VMware Workstation 17 Pro&lt;/div&gt;" style="image;html=1;image=img/lib/clip_art/computers/Laptop_128x128.png" vertex="1" parent="1">
          <mxGeometry x="349.74" y="680" width="105" height="100" as="geometry" />
        </mxCell>
        <mxCell id="UwhsoIJC6lhriWPX3yOJ-25" value="" style="shape=image;html=1;verticalAlign=top;verticalLabelPosition=bottom;labelBackgroundColor=#ffffff;imageAspect=0;aspect=fixed;image=https://cdn1.iconfinder.com/data/icons/KDE_Crystal_Diamond_2.5_Classical_Mod/22x22/apps/go.png" vertex="1" parent="1">
          <mxGeometry x="710" y="590" width="50" height="50" as="geometry" />
        </mxCell>
        <mxCell id="UwhsoIJC6lhriWPX3yOJ-26" value="SIEM" style="verticalLabelPosition=middle;sketch=0;html=1;fillColor=#6ABD46;strokeColor=#ffffff;verticalAlign=middle;align=left;points=[[0.085,0.085,0],[0.915,0.085,0],[0.915,0.915,0],[0.085,0.915,0],[0.25,0,0],[0.5,0,0],[0.75,0,0],[1,0.25,0],[1,0.5,0],[1,0.75,0],[0.75,1,0],[0.5,1,0],[0.25,1,0],[0,0.75,0],[0,0.5,0],[0,0.25,0]];pointerEvents=1;shape=mxgraph.cisco_safe.compositeIcon;bgIcon=mxgraph.cisco_safe.architecture.generic_appliance;resIcon=mxgraph.cisco_safe.architecture.siem;labelPosition=right;" vertex="1" parent="1">
          <mxGeometry x="710" y="530" width="50" height="50" as="geometry" />
        </mxCell>
        <mxCell id="UwhsoIJC6lhriWPX3yOJ-27" value="" style="image;aspect=fixed;html=1;points=[];align=center;fontSize=12;image=img/lib/azure2/identity/Azure_Active_Directory.svg;" vertex="1" parent="1">
          <mxGeometry x="68.13" y="330" width="43.75" height="40" as="geometry" />
        </mxCell>
        <mxCell id="UwhsoIJC6lhriWPX3yOJ-28" value="" style="sketch=0;pointerEvents=1;shadow=0;dashed=0;html=1;strokeColor=none;fillColor=#005F4B;labelPosition=center;verticalLabelPosition=bottom;verticalAlign=top;align=center;outlineConnect=0;shape=mxgraph.veeam2.domain_controller;" vertex="1" parent="1">
          <mxGeometry x="68.13" y="374" width="40" height="52" as="geometry" />
        </mxCell>
        <mxCell id="UwhsoIJC6lhriWPX3yOJ-29" value="" style="image;aspect=fixed;html=1;points=[];align=center;fontSize=12;image=img/lib/azure2/integration/App_Configuration.svg;" vertex="1" parent="1">
          <mxGeometry x="760" y="358" width="48.94" height="52" as="geometry" />
        </mxCell>
        <mxCell id="UwhsoIJC6lhriWPX3yOJ-30" value="&lt;b&gt;Splunk Server&lt;/b&gt;&lt;div&gt;Ubuntu Server 24.04&lt;/div&gt;&lt;div&gt;Splunk Enterprise&lt;/div&gt;&lt;div&gt;IP 192.168.220.132&lt;/div&gt;" style="image;sketch=0;aspect=fixed;html=1;points=[];align=center;fontSize=12;image=img/lib/mscae/VM_Linux.svg;" vertex="1" parent="1">
          <mxGeometry x="620" y="527.4" width="60" height="55.2" as="geometry" />
        </mxCell>
        <mxCell id="UwhsoIJC6lhriWPX3yOJ-82" value="" style="endArrow=none;html=1;rounded=0;entryX=0;entryY=1;entryDx=0;entryDy=0;" edge="1" parent="1" source="UwhsoIJC6lhriWPX3yOJ-1" target="UwhsoIJC6lhriWPX3yOJ-5">
          <mxGeometry width="50" height="50" relative="1" as="geometry">
            <mxPoint x="440" y="400" as="sourcePoint" />
            <mxPoint x="490" y="350" as="targetPoint" />
          </mxGeometry>
        </mxCell>
        <mxCell id="UwhsoIJC6lhriWPX3yOJ-83" value="" style="endArrow=none;html=1;rounded=0;entryX=1;entryY=0.75;entryDx=0;entryDy=0;" edge="1" parent="1" source="UwhsoIJC6lhriWPX3yOJ-2" target="UwhsoIJC6lhriWPX3yOJ-5">
          <mxGeometry width="50" height="50" relative="1" as="geometry">
            <mxPoint x="440" y="400" as="sourcePoint" />
            <mxPoint x="490" y="350" as="targetPoint" />
          </mxGeometry>
        </mxCell>
        <mxCell id="UwhsoIJC6lhriWPX3yOJ-84" value="" style="endArrow=none;html=1;rounded=0;exitX=0.455;exitY=0.067;exitDx=0;exitDy=0;exitPerimeter=0;" edge="1" parent="1" source="UwhsoIJC6lhriWPX3yOJ-6" target="UwhsoIJC6lhriWPX3yOJ-5">
          <mxGeometry width="50" height="50" relative="1" as="geometry">
            <mxPoint x="430" y="370" as="sourcePoint" />
            <mxPoint x="490" y="350" as="targetPoint" />
          </mxGeometry>
        </mxCell>
        <mxCell id="UwhsoIJC6lhriWPX3yOJ-85" value="" style="endArrow=classic;html=1;rounded=0;entryX=1.132;entryY=-0.093;entryDx=0;entryDy=0;entryPerimeter=0;" edge="1" parent="1" source="UwhsoIJC6lhriWPX3yOJ-6" target="UwhsoIJC6lhriWPX3yOJ-7">
          <mxGeometry width="50" height="50" relative="1" as="geometry">
            <mxPoint x="440" y="400" as="sourcePoint" />
            <mxPoint x="490" y="350" as="targetPoint" />
          </mxGeometry>
        </mxCell>
        <mxCell id="UwhsoIJC6lhriWPX3yOJ-86" value="" style="endArrow=classic;html=1;rounded=0;exitX=0.864;exitY=0.93;exitDx=0;exitDy=0;exitPerimeter=0;" edge="1" parent="1" source="UwhsoIJC6lhriWPX3yOJ-6">
          <mxGeometry width="50" height="50" relative="1" as="geometry">
            <mxPoint x="480" y="420" as="sourcePoint" />
            <mxPoint x="600" y="530" as="targetPoint" />
          </mxGeometry>
        </mxCell>
        <mxCell id="UwhsoIJC6lhriWPX3yOJ-88" value="" style="endArrow=classic;startArrow=classic;html=1;rounded=0;" edge="1" parent="1">
          <mxGeometry width="50" height="50" relative="1" as="geometry">
            <mxPoint x="260" y="560" as="sourcePoint" />
            <mxPoint x="600" y="560" as="targetPoint" />
          </mxGeometry>
        </mxCell>
        <mxCell id="UwhsoIJC6lhriWPX3yOJ-94" value="" style="html=1;points=[[0,0,0,0,5],[0,1,0,0,-5],[1,0,0,0,5],[1,1,0,0,-5]];perimeter=orthogonalPerimeter;outlineConnect=0;targetShapes=umlLifeline;portConstraint=eastwest;newEdgeStyle={&quot;curved&quot;:0,&quot;rounded&quot;:0};fillColor=#60a917;fontColor=#ffffff;strokeColor=#2D7600;" vertex="1" parent="1">
          <mxGeometry x="540" y="530" width="10" height="80" as="geometry" />
        </mxCell>
        <mxCell id="UwhsoIJC6lhriWPX3yOJ-95" value="Receives Logs" style="html=1;verticalAlign=bottom;endArrow=block;curved=0;rounded=0;entryX=0;entryY=0;entryDx=0;entryDy=5;" edge="1" parent="1" target="UwhsoIJC6lhriWPX3yOJ-94">
          <mxGeometry relative="1" as="geometry">
            <mxPoint x="470" y="535" as="sourcePoint" />
          </mxGeometry>
        </mxCell>
        <mxCell id="UwhsoIJC6lhriWPX3yOJ-96" value="Splunk Universal Forwarder" style="html=1;verticalAlign=bottom;endArrow=open;dashed=1;endSize=8;curved=0;rounded=0;exitX=0;exitY=1;exitDx=0;exitDy=-5;" edge="1" parent="1">
          <mxGeometry x="0.1429" y="25" relative="1" as="geometry">
            <mxPoint x="450" y="605" as="targetPoint" />
            <mxPoint x="520" y="605" as="sourcePoint" />
            <mxPoint as="offset" />
          </mxGeometry>
        </mxCell>
        <mxCell id="UwhsoIJC6lhriWPX3yOJ-98" value="" style="endArrow=none;dashed=1;html=1;dashPattern=1 3;strokeWidth=2;rounded=0;exitX=1.05;exitY=0.85;exitDx=0;exitDy=0;exitPerimeter=0;fillColor=#60a917;strokeColor=#2D7600;" edge="1" parent="1" source="UwhsoIJC6lhriWPX3yOJ-1" target="UwhsoIJC6lhriWPX3yOJ-94">
          <mxGeometry width="50" height="50" relative="1" as="geometry">
            <mxPoint x="440" y="500" as="sourcePoint" />
            <mxPoint x="490" y="450" as="targetPoint" />
          </mxGeometry>
        </mxCell>
        <mxCell id="UwhsoIJC6lhriWPX3yOJ-99" value="" style="endArrow=none;dashed=1;html=1;dashPattern=1 3;strokeWidth=2;rounded=0;fillColor=#60a917;strokeColor=#2D7600;" edge="1" parent="1" target="UwhsoIJC6lhriWPX3yOJ-94">
          <mxGeometry width="50" height="50" relative="1" as="geometry">
            <mxPoint x="260" y="570" as="sourcePoint" />
            <mxPoint x="371.94" y="570" as="targetPoint" />
          </mxGeometry>
        </mxCell>
        <mxCell id="UwhsoIJC6lhriWPX3yOJ-100" value="Web interface accessible at https://192.168.220.132:8000" style="whiteSpace=wrap;html=1;" vertex="1" parent="1">
          <mxGeometry x="570" y="660" width="190" height="60" as="geometry" />
        </mxCell>
        <mxCell id="UwhsoIJC6lhriWPX3yOJ-177" value="Active Directory | SCCM | &amp; | Splunk Lab&#xa;By Randal" style="shape=table;startSize=30;container=1;collapsible=0;childLayout=tableLayout;fontStyle=1;labelBackgroundColor=default;" vertex="1" parent="1">
          <mxGeometry x="90" y="50" width="259.7399999999998" height="150" as="geometry" />
        </mxCell>
        <mxCell id="UwhsoIJC6lhriWPX3yOJ-178" value="" style="shape=tableRow;horizontal=0;startSize=0;swimlaneHead=0;swimlaneBody=0;strokeColor=inherit;top=0;left=0;bottom=0;right=0;collapsible=0;dropTarget=0;fillColor=none;points=[[0,0.5],[1,0.5]];portConstraint=eastwest;" vertex="1" parent="UwhsoIJC6lhriWPX3yOJ-177">
          <mxGeometry y="30" width="259.7399999999998" height="20" as="geometry" />
        </mxCell>
        <mxCell id="UwhsoIJC6lhriWPX3yOJ-179" value="&lt;b&gt;Domain&lt;/b&gt;" style="shape=partialRectangle;html=1;whiteSpace=wrap;connectable=0;strokeColor=inherit;overflow=hidden;fillColor=none;top=0;left=0;bottom=0;right=0;pointerEvents=1;" vertex="1" parent="UwhsoIJC6lhriWPX3yOJ-178">
          <mxGeometry width="130" height="20" as="geometry">
            <mxRectangle width="130" height="20" as="alternateBounds" />
          </mxGeometry>
        </mxCell>
        <mxCell id="UwhsoIJC6lhriWPX3yOJ-180" value="Rqdevops76.com" style="shape=partialRectangle;html=1;whiteSpace=wrap;connectable=0;strokeColor=inherit;overflow=hidden;fillColor=none;top=0;left=0;bottom=0;right=0;pointerEvents=1;" vertex="1" parent="UwhsoIJC6lhriWPX3yOJ-178">
          <mxGeometry x="130" width="130" height="20" as="geometry">
            <mxRectangle width="130" height="20" as="alternateBounds" />
          </mxGeometry>
        </mxCell>
        <mxCell id="UwhsoIJC6lhriWPX3yOJ-181" value="" style="shape=tableRow;horizontal=0;startSize=0;swimlaneHead=0;swimlaneBody=0;strokeColor=inherit;top=0;left=0;bottom=0;right=0;collapsible=0;dropTarget=0;fillColor=none;points=[[0,0.5],[1,0.5]];portConstraint=eastwest;" vertex="1" parent="UwhsoIJC6lhriWPX3yOJ-177">
          <mxGeometry y="50" width="259.7399999999998" height="20" as="geometry" />
        </mxCell>
        <mxCell id="UwhsoIJC6lhriWPX3yOJ-182" value="&lt;b&gt;Network&lt;span style=&quot;white-space: pre;&quot;&gt;&#x9;&lt;/span&gt;&lt;/b&gt;" style="shape=partialRectangle;html=1;whiteSpace=wrap;connectable=0;strokeColor=inherit;overflow=hidden;fillColor=none;top=0;left=0;bottom=0;right=0;pointerEvents=1;" vertex="1" parent="UwhsoIJC6lhriWPX3yOJ-181">
          <mxGeometry width="130" height="20" as="geometry">
            <mxRectangle width="130" height="20" as="alternateBounds" />
          </mxGeometry>
        </mxCell>
        <mxCell id="UwhsoIJC6lhriWPX3yOJ-183" value="192.168.220.0/24" style="shape=partialRectangle;html=1;whiteSpace=wrap;connectable=0;strokeColor=inherit;overflow=hidden;fillColor=none;top=0;left=0;bottom=0;right=0;pointerEvents=1;" vertex="1" parent="UwhsoIJC6lhriWPX3yOJ-181">
          <mxGeometry x="130" width="130" height="20" as="geometry">
            <mxRectangle width="130" height="20" as="alternateBounds" />
          </mxGeometry>
        </mxCell>
        <mxCell id="UwhsoIJC6lhriWPX3yOJ-184" value="" style="shape=tableRow;horizontal=0;startSize=0;swimlaneHead=0;swimlaneBody=0;strokeColor=inherit;top=0;left=0;bottom=0;right=0;collapsible=0;dropTarget=0;fillColor=none;points=[[0,0.5],[1,0.5]];portConstraint=eastwest;" vertex="1" parent="UwhsoIJC6lhriWPX3yOJ-177">
          <mxGeometry y="70" width="259.7399999999998" height="20" as="geometry" />
        </mxCell>
        <mxCell id="UwhsoIJC6lhriWPX3yOJ-185" value="&lt;b&gt;Active Directory&lt;/b&gt;" style="shape=partialRectangle;html=1;whiteSpace=wrap;connectable=0;strokeColor=inherit;overflow=hidden;fillColor=none;top=0;left=0;bottom=0;right=0;pointerEvents=1;align=center;" vertex="1" parent="UwhsoIJC6lhriWPX3yOJ-184">
          <mxGeometry width="130" height="20" as="geometry">
            <mxRectangle width="130" height="20" as="alternateBounds" />
          </mxGeometry>
        </mxCell>
        <mxCell id="UwhsoIJC6lhriWPX3yOJ-186" value="192.168.220.10" style="shape=partialRectangle;html=1;whiteSpace=wrap;connectable=0;strokeColor=inherit;overflow=hidden;fillColor=none;top=0;left=0;bottom=0;right=0;pointerEvents=1;" vertex="1" parent="UwhsoIJC6lhriWPX3yOJ-184">
          <mxGeometry x="130" width="130" height="20" as="geometry">
            <mxRectangle width="130" height="20" as="alternateBounds" />
          </mxGeometry>
        </mxCell>
        <mxCell id="UwhsoIJC6lhriWPX3yOJ-187" value="" style="shape=tableRow;horizontal=0;startSize=0;swimlaneHead=0;swimlaneBody=0;strokeColor=inherit;top=0;left=0;bottom=0;right=0;collapsible=0;dropTarget=0;fillColor=none;points=[[0,0.5],[1,0.5]];portConstraint=eastwest;" vertex="1" parent="UwhsoIJC6lhriWPX3yOJ-177">
          <mxGeometry y="90" width="259.7399999999998" height="20" as="geometry" />
        </mxCell>
        <mxCell id="UwhsoIJC6lhriWPX3yOJ-188" value="&lt;b&gt;SCCM Server&lt;/b&gt;" style="shape=partialRectangle;html=1;whiteSpace=wrap;connectable=0;strokeColor=inherit;overflow=hidden;fillColor=none;top=0;left=0;bottom=0;right=0;pointerEvents=1;" vertex="1" parent="UwhsoIJC6lhriWPX3yOJ-187">
          <mxGeometry width="130" height="20" as="geometry">
            <mxRectangle width="130" height="20" as="alternateBounds" />
          </mxGeometry>
        </mxCell>
        <mxCell id="UwhsoIJC6lhriWPX3yOJ-189" value="192.168.220.12" style="shape=partialRectangle;html=1;whiteSpace=wrap;connectable=0;strokeColor=inherit;overflow=hidden;fillColor=none;top=0;left=0;bottom=0;right=0;pointerEvents=1;" vertex="1" parent="UwhsoIJC6lhriWPX3yOJ-187">
          <mxGeometry x="130" width="130" height="20" as="geometry">
            <mxRectangle width="130" height="20" as="alternateBounds" />
          </mxGeometry>
        </mxCell>
        <mxCell id="UwhsoIJC6lhriWPX3yOJ-190" style="shape=tableRow;horizontal=0;startSize=0;swimlaneHead=0;swimlaneBody=0;strokeColor=inherit;top=0;left=0;bottom=0;right=0;collapsible=0;dropTarget=0;fillColor=none;points=[[0,0.5],[1,0.5]];portConstraint=eastwest;" vertex="1" parent="UwhsoIJC6lhriWPX3yOJ-177">
          <mxGeometry y="110" width="259.7399999999998" height="20" as="geometry" />
        </mxCell>
        <mxCell id="UwhsoIJC6lhriWPX3yOJ-191" value="&lt;b&gt;Splunk Server&lt;/b&gt;" style="shape=partialRectangle;html=1;whiteSpace=wrap;connectable=0;strokeColor=inherit;overflow=hidden;fillColor=none;top=0;left=0;bottom=0;right=0;pointerEvents=1;" vertex="1" parent="UwhsoIJC6lhriWPX3yOJ-190">
          <mxGeometry width="130" height="20" as="geometry">
            <mxRectangle width="130" height="20" as="alternateBounds" />
          </mxGeometry>
        </mxCell>
        <mxCell id="UwhsoIJC6lhriWPX3yOJ-192" value="192.168.220.132" style="shape=partialRectangle;html=1;whiteSpace=wrap;connectable=0;strokeColor=inherit;overflow=hidden;fillColor=none;top=0;left=0;bottom=0;right=0;pointerEvents=1;" vertex="1" parent="UwhsoIJC6lhriWPX3yOJ-190">
          <mxGeometry x="130" width="130" height="20" as="geometry">
            <mxRectangle width="130" height="20" as="alternateBounds" />
          </mxGeometry>
        </mxCell>
        <mxCell id="UwhsoIJC6lhriWPX3yOJ-201" style="shape=tableRow;horizontal=0;startSize=0;swimlaneHead=0;swimlaneBody=0;strokeColor=inherit;top=0;left=0;bottom=0;right=0;collapsible=0;dropTarget=0;fillColor=none;points=[[0,0.5],[1,0.5]];portConstraint=eastwest;" vertex="1" parent="UwhsoIJC6lhriWPX3yOJ-177">
          <mxGeometry y="130" width="259.7399999999998" height="20" as="geometry" />
        </mxCell>
        <mxCell id="UwhsoIJC6lhriWPX3yOJ-202" value="&lt;b&gt;PC Workstation&lt;/b&gt;" style="shape=partialRectangle;html=1;whiteSpace=wrap;connectable=0;strokeColor=inherit;overflow=hidden;fillColor=none;top=0;left=0;bottom=0;right=0;pointerEvents=1;" vertex="1" parent="UwhsoIJC6lhriWPX3yOJ-201">
          <mxGeometry width="130" height="20" as="geometry">
            <mxRectangle width="130" height="20" as="alternateBounds" />
          </mxGeometry>
        </mxCell>
        <mxCell id="UwhsoIJC6lhriWPX3yOJ-203" value="192.168.220.15" style="shape=partialRectangle;html=1;whiteSpace=wrap;connectable=0;strokeColor=inherit;overflow=hidden;fillColor=none;top=0;left=0;bottom=0;right=0;pointerEvents=1;" vertex="1" parent="UwhsoIJC6lhriWPX3yOJ-201">
          <mxGeometry x="130" width="130" height="20" as="geometry">
            <mxRectangle width="130" height="20" as="alternateBounds" />
          </mxGeometry>
        </mxCell>
        <mxCell id="UwhsoIJC6lhriWPX3yOJ-204" value="&lt;font style=&quot;font-size: 19px;&quot;&gt;&lt;b&gt;&lt;u&gt;Logical Topology&lt;/u&gt;&lt;/b&gt;&lt;/font&gt;" style="text;html=1;align=center;verticalAlign=middle;resizable=0;points=[];autosize=1;strokeColor=none;fillColor=none;" vertex="1" parent="1">
          <mxGeometry x="460" y="73" width="180" height="40" as="geometry" />
        </mxCell>
      </root>
    </mxGraphModel>
  </diagram>
</mxfile>
